<svg xmlns="http://www.w3.org/2000/svg" viewBox="0 0 120 120" role="img" aria-labelledby="title desc">
  <title id="title">AdiLink logo</title>
  <desc id="desc">Gold AdiLink mountain emblem inside a circle.</desc>
  <defs>
    <linearGradient id="gold" x1="18" y1="14" x2="100" y2="104" gradientUnits="userSpaceOnUse">
      <stop offset="0" stop-color="#f5d37a"/>
      <stop offset="0.52" stop-color="#d9a849"/>
      <stop offset="1" stop-color="#a86f1e"/>
    </linearGradient>
  </defs>
  <circle cx="60" cy="60" r="52" fill="none" stroke="url(#gold)" stroke-width="5"/>
  <path d="M30 80c8-5 15-15 20-31 2-7 6-11 10-11s8 4 10 11c5 16 12 26 20 31H72c-5-6-8-16-9-29-1-5-5-5-6 0-1 13-4 23-9 29H30Z" fill="url(#gold)"/>
  <path d="M22 86c10 0 10 8 20 8s10-8 20-8 10 8 20 8 10-8 20-8" fill="none" stroke="url(#gold)" stroke-width="5" stroke-linecap="round"/>
  <path d="M33 99c7 0 7 5 14 5s7-5 14-5 7 5 14 5 7-5 14-5" fill="none" stroke="url(#gold)" stroke-width="4" stroke-linecap="round"/>
</svg>
